<svg width="120" height="57" viewBox="0 0 120 57" xmlns="http://www.w3.org/2000/svg" xmlns:xlink="http://www.w3.org/1999/xlink" xmlns:sketch="http://www.bohemiancoding.com/sketch/ns"><defs><path id="a" d="M180.454 20.092l.099-.591c.852-5.522 7.47-8.225 11.971-4.88.515.383.969.849 1.463 1.286l.115-.125c1.906-2.085 4.262-2.942 7.064-2.502 3.034.477 5.531 2.896 6.127 5.887.061.307.107.617.16.925v1.991l-.042.15c-.11 1.038-.454 2.003-.924 2.928-.86 1.694-2.055 3.142-3.384 4.485-2.658 2.686-5.692 4.893-8.916 6.854-.174.106-.295.106-.471 0-1.803-1.088-3.539-2.272-5.197-3.567-1.841-1.437-3.577-2.987-5.079-4.781-1.102-1.316-2.059-2.722-2.594-4.367-.18-.552-.265-1.134-.394-1.702v-1.991z"/></defs><g sketch:type="MSArtboardGroup" fill="none"><g transform="translate(-90 -11)"><use fill="#FF6D6D" sketch:type="MSShapeGroup" xlink:href="#a"/><use xlink:href="#a"/></g><g sketch:type="MSLayerGroup" fill="#fff"><path d="M101.6 13.99h-2.175c-.556 0-1-.448-1-1v-3c0-.556.448-1 1-1h3c.556 0 1 .448 1 1v3.89l.047.033s.203 3.691-3.486 4.092c-.144.016-.373 0-.448-.296-.075-.296.011-.889.019-1.129.007-.185.38-.372.38-.372.575-.101 1.625-.47 1.625-1.817 0-.155.013-.288.038-.401z" sketch:type="MSShapeGroup"/><path d="M107.6 13.99h-2.175c-.556 0-1-.448-1-1v-3c0-.556.448-1 1-1h3c.556 0 1 .448 1 1v3.89l.047.033s.203 3.691-3.486 4.092c-.144.016-.373 0-.448-.296-.075-.296.011-.889.019-1.129.007-.185.38-.372.38-.372.575-.101 1.625-.47 1.625-1.817 0-.155.013-.288.038-.401z" sketch:type="MSShapeGroup"/></g><path d="M3.773 21.867c.952.735 2.076 1.125 3.244 1.125.779 0 2.033-.087 2.033-1.125 0-.519-.476-.822-.995-.822-.13 0-.865.13-1.038.13-1.73 0-3.071-1.471-3.071-2.898 0-1.903 1.644-3.504 4.801-3.504 2.941 0 5.666 1.168 9.083 3.114-1.427 1.557-2.206 3.893-2.206 6.834 0 1.298.216 3.028.476 4.671.173 1.644.476 3.331.476 4.671 0 3.46-.692 5.623-3.244 5.623-.649 0-1.471 0-1.471.908 0 1.038.952.952 1.471.952 5.147 0 5.147-5.493 5.147-7.483 0-1.471-.26-3.201-.476-4.931-.26-1.6-.433-3.244-.433-4.412 0-2.163.346-4.498 1.946-5.969 2.682 1.471 5.753 2.941 8.737 2.941 2.552 0 4.152-1.298 4.152-3.028 0-1.6-1.514-3.59-6.402-3.59-2.768 0-4.974.519-6.618 1.514-3.59-1.99-6.748-3.59-10.641-3.59-4.628 0-6.748 2.639-6.748 5.277 0 1.341.649 2.682 1.773 3.59zm26.688-3.158c0 .779-1.125 1.211-2.206 1.211-2.163 0-4.758-.952-6.964-2.249 1.211-.519 2.898-.779 4.715-.779 3.244 0 4.455.952 4.455 1.817zm4.974 7.44c-4.758 0-7.872 6.272-7.872 10.77 0 3.244 1.773 4.542 3.504 4.542 3.114 0 4.498-2.898 4.498-3.633 0-.519-.346-.952-.908-.952-.346 0-.692.216-.822.562-.433 1.168-1.298 2.206-2.465 2.206-1.125 0-1.86-1.125-1.86-2.725 0-3.936 2.465-8.954 5.753-8.954 1.125 0 2.249.779 2.249 2.855 0 1.514-.303 3.201-.562 4.801-.216 1.557-.476 2.768-.476 3.677 0 .865.26 2.076 1.211 2.076.519 0 .995-.433.995-.908 0-.216-.087-.346-.173-.519-.043-.13-.087-.303-.087-.562 0-.865.26-2.336.433-3.46.303-1.644.562-3.547.562-5.191 0-2.985-1.514-4.585-3.979-4.585zm15.096.216c-4.888 0-8.651 7.094-8.737 17.258-2.379.606-3.504 2.422-3.504 3.417 0 .476.26.865.779.865.389 0 .779-.216.822-.476.13-.692.908-1.644 1.903-1.946.043 5.32 2.033 9.516 5.45 9.516 2.163 0 3.633-1.384 3.633-4.325 0-3.633-2.725-7.353-7.18-7.353.173-8.608 3.374-15.096 6.834-15.096 2.076 0 2.595 3.114 2.595 4.498 0 4.542-1.6 7.007-3.59 7.007-1.125 0-1.557-.822-1.86-1.427-.173-.303-.519-.476-.865-.476-.519 0-.952.389-.952.952 0 .606 1.081 2.768 3.677 2.768 2.941 0 5.537-3.028 5.537-8.824 0-3.677-1.557-6.358-4.542-6.358zm-3.331 26.904c-1.6 0-3.46-2.768-3.504-8.132 3.287-.087 5.234 2.855 5.234 5.58 0 1.6-.476 2.552-1.73 2.552zm14.793-38.929c-.346.13-.606.476-.606.908 0 .087.043.216.087.346.13.216.173.779.173 1.644 0 1.773-.606 3.979-1.557 7.916-.822 3.331-2.119 9.559-2.119 13.02 0 1.211.087 3.114 1.298 3.114.519 0 .952-.389.952-.952 0-.173-.043-.303-.13-.433-.043-.13-.173-.519-.173-1.73 0-3.46 1.341-9.689 2.292-13.582.606-2.509 1.341-5.32 1.341-7.353 0-1.384 0-2.985-1.168-2.985-.13 0-.303.043-.389.087zm6.748 7.094l-1.298-1.427.216 1.99-2.119 1.211 2.163.173-.043 2.509 1.211-2.379 3.201.519-2.639-1.687 1.73-1.211-2.422.303zm-.303 5.32c-.519-.13-1.081.173-1.168.692-1.298 5.147-1.946 12.674-1.946 13.236 0 .562.433.995.995.995.519 0 .908-.389.952-.908.26-4.109 1.081-9.732 1.86-12.847.043-.087.043-.173.043-.216 0-.433-.303-.822-.735-.952zm12.025-.26c-1.946 0-3.633 1.384-4.801 4.066.173-2.595-.995-4.196-1.86-4.196-.519 0-.952.433-.952.908 0 .26.087.476.216.692.562.562.735 1.298.779 2.595-.043 1.471-.433 3.374-.908 5.32-.173.692-.952 3.85-.952 4.369 0 .562.346.995.908.995.476 0 .822-.303.908-.735 1.384-7.137 4.152-12.025 6.488-12.025 1.125 0 1.557 1.644 1.557 3.936 0 2.812-.606 6.099-.952 7.613l-.043.173c0 .562.433.995.995.995.13 0 .822 0 .952-.865.303-1.471.995-4.888.995-7.916 0-5.32-2.336-5.926-3.331-5.926zm11.419 6.488c-.562.043-.952.476-.952.952 0 .562.433.908.952.908 2.552 0 6.142-1.687 6.142-5.104 0-1.73-1.038-3.331-3.633-3.331-3.417 0-7.223 3.806-7.223 9.256 0 3.677 2.119 5.883 5.407 5.883 2.639 0 4.715-1.73 4.715-2.552 0-.562-.346-.995-.865-.995-.303 0-.519.13-.692.346-.735.908-1.903 1.427-3.028 1.427-3.114 0-3.59-2.639-3.59-4.109 0-4.628 3.071-7.396 5.234-7.396 1.125 0 1.73.606 1.73 1.471 0 1.946-2.163 3.201-4.196 3.244z" fill="#4A4A4A" sketch:type="MSShapeGroup"/></g></svg>