<svg width="136" height="48" viewBox="0 0 136 48" xmlns="http://www.w3.org/2000/svg" xmlns:xlink="http://www.w3.org/1999/xlink" xmlns:sketch="http://www.bohemiancoding.com/sketch/ns"><defs><path id="a" d="M180.454 20.092l.099-.591c.852-5.522 7.47-8.225 11.971-4.88.515.383.969.849 1.463 1.286l.115-.125c1.906-2.085 4.262-2.942 7.064-2.502 3.034.477 5.531 2.896 6.127 5.887.061.307.107.617.16.925v1.991l-.042.15c-.11 1.038-.454 2.003-.924 2.928-.86 1.694-2.055 3.142-3.384 4.485-2.658 2.686-5.692 4.893-8.916 6.854-.174.106-.295.106-.471 0-1.803-1.088-3.539-2.272-5.197-3.567-1.841-1.437-3.577-2.987-5.079-4.781-1.102-1.316-2.059-2.722-2.594-4.367-.18-.552-.265-1.134-.394-1.702v-1.991z"/></defs><g sketch:type="MSArtboardGroup" fill="none"><g transform="translate(-74 -10)"><use fill="#FF6D6D" sketch:type="MSShapeGroup" xlink:href="#a"/><use xlink:href="#a"/></g><g sketch:type="MSLayerGroup" fill="#fff"><path d="M117.6 14.99h-2.175c-.556 0-1-.448-1-1v-3c0-.556.448-1 1-1h3c.556 0 1 .448 1 1v3.89l.047.033s.203 3.691-3.486 4.092c-.144.016-.373 0-.448-.296-.075-.296.011-.889.019-1.129.007-.185.38-.372.38-.372.575-.101 1.625-.47 1.625-1.817 0-.155.013-.288.038-.401z" sketch:type="MSShapeGroup"/><path d="M123.6 14.99h-2.175c-.556 0-1-.448-1-1v-3c0-.556.448-1 1-1h3c.556 0 1 .448 1 1v3.89l.047.033s.203 3.691-3.486 4.092c-.144.016-.373 0-.448-.296-.075-.296.011-.889.019-1.129.007-.185.38-.372.38-.372.575-.101 1.625-.47 1.625-1.817 0-.155.013-.288.038-.401z" sketch:type="MSShapeGroup"/></g><path d="M16.375 21.786c-3.961-1.421-6.371-2.497-6.371-5.123 0-2.282 2.196-4.736 6.63-4.736.474 0 1.076.086 1.55.172-.517.775-.818 1.894-.818 2.884 0 2.325 1.636 3.918 3.53 3.918 1.722 0 2.884-1.507 2.884-3.057 0-1.033-.215-2.368-1.593-3.702-.215-.215-.517-.431-.818-.646.818-.517 1.722-.775 2.669-.775.56 0 1.033-.301 1.033-.775 0-.56-.431-.947-.99-.947-1.808 0-3.401.603-4.606 1.593-.818-.215-1.765-.387-2.798-.387-5.683 0-8.61 3.229-8.61 6.458 0 4.176 3.831 5.51 7.706 6.845 4.692 1.593 7.921 3.186 7.921 7.276 0 1.98-1.119 3.831-3.057 4.822-.129-5.338-4.305-9.256-9.902-9.256-4.047 0-7.189 2.54-7.189 5.769 0 4.09 4.606 6.759 10.117 6.759.904 0 1.722-.043 2.497-.129.775-.086 1.507-.215 2.153-.344-.689 1.894-1.98 3.272-3.315 3.831-.387.172-.603.517-.603.904 0 .517.431.861.99.861.775 0 4.047-1.98 5.037-6.285 3.444-1.421 5.166-4.047 5.166-6.931 0-5.726-5.08-7.534-9.213-8.998zm5.51-5.941c0 .689-.344 1.292-.99 1.292-.861 0-1.636-.947-1.636-2.153 0-.947.258-1.722.689-2.368 1.808 1.119 1.937 2.54 1.937 3.229zm-11.15 12.312c5.338 0 8.309 3.702 8.05 8.309-1.464.474-3.229.689-5.123.689-4.606 0-8.223-2.153-8.223-4.994 0-2.325 2.454-4.004 5.295-4.004zm16.641 10.289c.474 0 .818-.301.904-.775 1.421-7.448 3.961-12.442 6.199-12.442 1.851 0 1.894 3.229 1.894 4.176 0 1.679-.258 3.487-.56 5.381-.172.904-.387 2.196-.387 2.368 0 .517.387.99.947.99.775 0 .818-.344 1.292-3.272.818-5.037 3.057-9.686 5.467-9.686 1.464 0 1.894 2.239 1.894 4.606 0 2.798-.732 6.027-1.162 7.491-.043.086-.043.172-.043.258 0 .517.431.99.99.99.431 0 .775-.301.947-.689.387-1.55 1.162-5.037 1.162-8.137 0-4.649-1.636-6.415-3.573-6.458-2.325 0-4.047 1.722-5.166 5.037-.172-3.875-1.98-4.951-3.487-4.951-1.722 0-3.444 1.076-4.779 4.305.344-2.755-.689-4.606-1.593-4.606-.56 0-.99.431-.99.947 0 .258.086.474.215.689.646.646.646 2.153.646 2.626 0 2.282-.646 5.209-1.162 7.405-.258 1.162-.56 2.325-.56 2.755 0 .56.344.99.904.99zm30.351-15.369c-2.755 0-4.219 2.153-4.219 4.219 0 1.98 1.292 3.616 3.788 3.616 1.076 0 1.162-.689 1.162-.947 0-.517-.431-.947-.99-.947-.732 0-2.023 0-2.023-1.722 0-1.033.56-2.411 2.196-2.411 2.066 0 2.755 2.325 2.755 4.047 0 3.659-1.98 7.749-5.08 7.749-2.196 0-3.1-2.626-3.1-4.865 0-.904.129-2.109.387-2.755.043-.129.086-.258.086-.431 0-.474-.387-.947-.904-.947-.387 0-.775.301-.904.689-.431 1.162-.603 2.282-.603 3.487 0 4.004 1.98 6.63 4.951 6.63 4.391 0 7.103-4.951 7.103-9.557 0-3.444-1.765-5.855-4.606-5.855zm14.68 0c-2.755 0-4.219 2.153-4.219 4.219 0 1.98 1.292 3.616 3.788 3.616 1.076 0 1.162-.689 1.162-.947 0-.517-.431-.947-.99-.947-.732 0-2.023 0-2.023-1.722 0-1.033.56-2.411 2.196-2.411 2.066 0 2.755 2.325 2.755 4.047 0 3.659-1.98 7.749-5.08 7.749-2.196 0-3.1-2.626-3.1-4.865 0-.904.129-2.109.387-2.755.043-.129.086-.258.086-.431 0-.474-.387-.947-.904-.947-.387 0-.775.301-.904.689-.431 1.162-.603 2.282-.603 3.487 0 4.004 1.98 6.63 4.951 6.63 4.391 0 7.103-4.951 7.103-9.557 0-3.444-1.765-5.855-4.606-5.855zm12.743 14.422c0-.474-.387-.904-.861-.904-.431-.086-1.679-.301-1.679-3.702 0-2.196.387-4.908 1.162-7.663.818.043 2.282.129 3.1.129.474 0 .818-.344.818-.861 0-.474-.474-.818-.947-.904-1.162-.043-2.023-.086-2.626-.086.215-.947.775-3.229 1.205-4.52.043-.086.086-.301.086-.474 0-.517-.431-.861-.99-.861-.387.043-.732.301-.861.689-.474 1.722-.99 3.702-1.335 5.123-1.55.043-3.358.086-3.358 1.292 0 .474.301.732.603.732.603 0 1.076-.215 2.325-.215-.818 3.272-1.076 5.683-1.076 7.749 0 3.315 1.033 5.08 3.186 5.424l.301.043c.517-.043.947-.474.947-.99zm6.07.732c.56 0 .99-.431.904-.947-.603-4.779 3.057-11.968 5.855-11.968 1.076 0 1.636 1.119 1.636 4.391 0 2.755-.603 5.683-.947 7.017l-.043.258c0 .474.431.947.99.947.431 0 .775-.301.904-.732.129-.387 1.033-3.918 1.033-7.491 0-1.851-.043-6.371-3.444-6.371-2.325 0-4.951 2.626-6.242 6.931.517-4.133 1.205-7.189 1.593-8.739 4.305-1.076 8.739-4.305 8.739-7.792 0-1.765-1.076-2.884-2.927-2.884-3.315 0-5.984 4.865-7.319 9.127-.474.086-1.076.129-1.636.129h-.818c-.474-.086-.904.344-.904.861 0 .99.904.947 1.679.947.387 0 .861 0 1.162-.043-.431 1.808-1.421 7.319-1.421 12.054 0 1.421.086 2.239.301 3.53.086.431.431.775.904.775zm8.007-25.615c.775 0 1.076.474 1.076 1.119 0 2.109-2.884 4.606-6.242 5.769 1.335-4.047 3.616-6.888 5.166-6.888z" fill="#4A4A4A" sketch:type="MSShapeGroup"/></g></svg>