<svg width="90" height="90" viewBox="0 0 90 90" xmlns="http://www.w3.org/2000/svg" xmlns:xlink="http://www.w3.org/1999/xlink" xmlns:sketch="http://www.bohemiancoding.com/sketch/ns"><title>sms_icon</title><desc>Created with Sketch.</desc><defs><path id="a" d="M0 8.745l.121-.745c1.041-6.962 9.129-10.371 14.631-6.153.63.483 1.184 1.07 1.788 1.622l.141-.158c2.33-2.629 5.21-3.709 8.633-3.154 3.708.601 6.76 3.651 7.489 7.423.075.387.131.777.196 1.166v2.511l-.051.189c-.135 1.309-.555 2.526-1.129 3.692-1.051 2.136-2.512 3.962-4.136 5.655-3.248 3.387-6.956 6.169-10.897 8.642-.213.133-.361.133-.576 0-2.204-1.372-4.326-2.865-6.352-4.497-2.25-1.812-4.372-3.767-6.207-6.028-1.347-1.659-2.517-3.433-3.17-5.506-.219-.696-.324-1.43-.481-2.146v-2.511z"/></defs><g sketch:type="MSLayerGroup" fill="none"><path d="M58.622 0c9.035 0 13.552 0 18.416 1.538 5.31 1.933 9.492 6.115 11.425 11.425 1.537 4.863 1.537 9.381 1.537 18.416v27.245c0 9.035 0 13.552-1.537 18.416-1.933 5.31-6.115 9.492-11.425 11.424-4.864 1.538-9.38 1.538-18.416 1.538h-27.245c-9.035 0-13.552 0-18.416-1.538-5.31-1.932-9.492-6.114-11.425-11.424-1.537-4.864-1.537-9.38-1.537-18.416v-27.245c0-9.034 0-13.552 1.538-18.416 1.933-5.31 6.115-9.492 11.425-11.425 4.863-1.537 9.38-1.537 18.416-1.537h27.245z" fill="#fff" sketch:type="MSShapeGroup"/><path d="M45.104 77.775c18.143 0 32.85-14.708 32.85-32.85 0-18.143-14.708-32.85-32.85-32.85-18.143 0-32.85 14.708-32.85 32.85 0 18.143 14.708 32.85 32.85 32.85z" fill="#00CF48" sketch:type="MSShapeGroup"/><g><g transform="translate(29 32)"><use fill="#fff" sketch:type="MSShapeGroup" xlink:href="#a"/><use xlink:href="#a"/></g><g fill="#00CF48" sketch:type="MSShapeGroup"><path d="M42.623 47.117h-2.872c-.57 0-1.009-.447-1.009-.999v-4.306c0-.546.452-.999 1.009-.999h4.093c.57 0 1.009.447 1.009.999v5.167l.058.041s.248 4.654-4.261 5.16c-.175.02-.455 0-.547-.373-.092-.373.013-1.121.023-1.424.009-.233.465-.47.465-.47.703-.127 1.986-.593 1.986-2.29 0-.196.016-.363.046-.505z"/><path d="M49.956 47.117h-2.872c-.57 0-1.009-.447-1.009-.999v-4.306c0-.546.452-.999 1.009-.999h4.093c.57 0 1.009.447 1.009.999v5.167l.058.041s.248 4.654-4.261 5.16c-.175.02-.455 0-.547-.373-.092-.373.013-1.121.023-1.424.009-.233.465-.47.465-.47.703-.127 1.986-.593 1.986-2.29 0-.196.016-.363.046-.505z"/></g></g><path d="M20 64.5s-1.5 8.5-7 10.5 14.5 3 17-2.5-10-8-10-8z" fill="#02D04A" sketch:type="MSShapeGroup"/></g></svg>