<svg width="108" height="26" viewBox="0 0 108 26" xmlns="http://www.w3.org/2000/svg" xmlns:xlink="http://www.w3.org/1999/xlink" xmlns:sketch="http://www.bohemiancoding.com/sketch/ns"><title>logo_micro_white</title><desc>Created with Sketch.</desc><defs><path id="a" d="M92.891 3.94l.056-.328c.477-3.068 4.18-4.57 6.699-2.711.288.213.542.471.819.715l.065-.07c1.067-1.158 2.385-1.634 3.953-1.39 1.698.265 3.095 1.609 3.429 3.271l.09.514v1.106l-.023.083c-.062.577-.254 1.113-.517 1.627-.481.941-1.15 1.746-1.894 2.492-1.487 1.492-3.185 2.718-4.989 3.808-.097.059-.165.059-.263 0-1.009-.604-1.98-1.262-2.908-1.982-1.03-.798-2.002-1.66-2.842-2.656-.617-.731-1.152-1.512-1.452-2.426-.1-.307-.148-.63-.22-.946v-1.106z"/></defs><g sketch:type="MSLayerGroup" fill="none"><g transform="translate(-793 -162) translate(793 162)"><use fill="#fff" sketch:type="MSShapeGroup" xlink:href="#a"/><use xlink:href="#a"/></g><path d="M9.244 22.003c-.922-.573-1.943-1.146-2.641-1.495 1.121-1.37 1.869-2.666 3.04-4.56l.523-.847c.648-1.046 1.595-2.516 2.516-3.663.573.174 1.096.249 1.52.249 1.769 0 3.114-.947 3.114-2.317 0-.922-.523-1.495-1.545-1.495-1.345 0-2.367.947-3.488 2.317-1.595-.598-2.442-1.221-3.712-1.894.174-.548.249-1.146.249-1.694 0-1.42-.698-2.84-1.321-2.84-.274 0-.523.249-.523.573 0 .1.05.224.125.349.374.448.648 1.171.648 1.894 0 .424-.075.822-.199 1.221-1.121-.598-2.093-.947-3.339-.947-1.42 0-2.616.822-2.616 2.267 0 1.495 1.221 2.342 2.865 2.342 1.42 0 2.915-.797 3.663-2.217 1.246.723 2.317 1.345 3.463 1.844-.822 1.096-1.62 2.317-2.267 3.388l-.473.772c-1.196 1.943-2.093 3.388-3.314 4.784-.822-.324-1.47-.523-2.317-.523-2.193 0-3.214 1.171-3.214 2.442 0 1.022.822 1.57 1.744 1.57 1.57 0 2.766-.698 4.061-2.168 1.171.573 2.317 1.296 3.812 2.168 2.168 1.271 3.538 2.068 5.631 2.068 2.168 0 3.712-1.495 3.712-3.314 0-1.52-.972-2.84-2.666-2.84-.299 0-.548.249-.548.548 0 .299.249.548.548.548 1.071 0 1.57.897 1.57 1.744 0 1.37-1.071 2.267-2.641 2.267-1.321 0-2.691-.448-4.684-1.719l-1.296-.822zm6.453-13.106c.349 0 .523.299.523.523 0 .772-.698 1.221-2.093 1.221-.199 0-.473-.025-.772-.1.797-.972 1.595-1.644 2.342-1.644zm-11.237 1.52c-1.046 0-1.744-.498-1.744-1.296 0-.698.648-1.246 1.52-1.246 1.046 0 2.043.448 2.94.897-.448.797-1.47 1.644-2.716 1.644zm-3.339 11.486c0-.648.598-1.345 2.018-1.345.548 0 .997.125 1.62.349-.872.897-1.894 1.595-2.865 1.595-.523 0-.772-.349-.772-.598zm22.15-3.314c-.324.025-.548.274-.548.548 0 .324.249.523.548.523 1.47 0 3.538-.972 3.538-2.94 0-.997-.598-1.918-2.093-1.918-1.968 0-4.161 2.193-4.161 5.332 0 2.118 1.221 3.388 3.114 3.388 1.52 0 2.716-.997 2.716-1.47 0-.324-.199-.573-.498-.573-.174 0-.299.075-.399.199-.424.523-1.096.822-1.744.822-1.794 0-2.068-1.52-2.068-2.367 0-2.666 1.769-4.261 3.015-4.261.648 0 .997.349.997.847 0 1.121-1.246 1.844-2.417 1.869zm9.568-3.737c-1.121 0-2.093.797-2.766 2.342.1-1.495-.573-2.417-1.071-2.417-.299 0-.548.249-.548.523 0 .149.05.274.125.399.324.324.424.747.448 1.495-.025.847-.249 1.943-.523 3.065-.1.399-.548 2.217-.548 2.516 0 .324.199.573.523.573.274 0 .473-.174.523-.424.797-4.111 2.392-6.926 3.737-6.926.648 0 .897.947.897 2.267 0 1.62-.349 3.513-.548 4.385l-.025.1c0 .324.249.573.573.573.075 0 .473 0 .548-.498.174-.847.573-2.815.573-4.56 0-3.065-1.345-3.413-1.918-3.413zm15.223-.648c.075-.698.1-1.345.1-1.968 0-2.068-.349-3.413-1.121-4.161-.473-.498-1.121-.747-1.943-.747-2.442 0-4.136 2.791-5.133 5.955-2.217.598-3.638 1.844-3.638 3.488 0 1.246.822 2.317 2.641 2.691-.025 2.492.523 3.986 1.221 3.986.324 0 .573-.249.573-.548 0-.125-.05-.249-.149-.349-.324-.448-.548-1.52-.548-2.965 2.392.05 4.385-1.196 4.385-3.065 0-.324-.249-.548-.548-.548-.324 0-.523.224-.523.548 0 1.321-1.62 2.093-3.289 2.043.075-1.321.324-2.965.747-4.435.648-.1 1.345-.174 2.093-.174 1.47 0 2.84.274 3.986.822-.224 2.392-.374 4.136-.374 4.983 0 1.719.274 2.766.872 3.388.324.349.822.523 1.345.523 1.321 0 2.815-1.121 2.815-3.787 0-2.217-1.196-4.36-3.513-5.681zm-.424 5.556c0-.997.199-2.965.349-4.41 1.47.997 2.492 2.616 2.492 4.535 0 1.545-.648 2.791-1.669 2.791-.947 0-1.171-1.296-1.171-2.915zm-2.541-11.411c.498 0 .872.174 1.146.448.548.548.822 1.694.822 3.413 0 .473-.025.972-.075 1.47-1.221-.498-2.591-.772-4.061-.772-.598 0-1.171.05-1.694.125.897-2.566 2.193-4.684 3.862-4.684zm-5.432 6.104c-.349 1.296-.623 2.865-.673 3.986-1.146-.324-1.545-.922-1.545-1.669 0-1.096 1.071-1.894 2.217-2.317zm16.419 9.019c.747 0 1.395-.299 1.943-.847 1.694-1.694 2.267-5.631 2.317-8.82.349.075.673.1.972.1.174 0 .448-.249.448-.523 0-.299-.174-.448-.473-.498-.324-.025-.648-.075-.922-.125.025-.523-.075-3.413-1.37-4.659-.424-.424-.947-.623-1.445-.623-1.271 0-2.018 1.171-2.018 2.267 0 1.794 1.62 3.339 3.712 3.887-.05 4.535-1.046 8.82-3.139 8.82-1.022 0-1.694-1.171-1.694-2.865 0-1.844.972-3.712 2.267-3.712.374 0 .698.174.822.374.1.174.299.274.473.274.299 0 .548-.249.548-.548 0-.473-.797-1.221-1.844-1.221-2.068 0-3.364 2.516-3.364 4.834 0 2.392 1.221 3.887 2.766 3.887zm1.42-14.949c.648 0 1.769 1.022 1.769 4.011-1.495-.399-2.616-1.57-2.616-2.815 0-.498.274-1.196.847-1.196zm5.78 7.3c.05-.274-.249-.523-.573-.523-.224 0-.473.174-.523.424-.149.772-.349 2.641-.349 3.862 0 1.744.299 3.837 1.644 3.837 1.819 0 4.335-4.734 4.709-8.122v-.05c0-.274-.224-.523-.498-.548-.299-.05-.573.174-.623.498-.399 3.588-2.791 7.176-3.538 7.176-.274 0-.573-.922-.573-2.791 0-1.246.174-2.99.274-3.513l.05-.249zm7.998-3.887l-.747-.822.125 1.146-1.221.698 1.246.1-.025 1.445.698-1.37 1.844.299-1.52-.972.997-.698-1.395.174zm-.174 3.065c-.299-.075-.623.1-.673.399-.747 2.965-1.121 7.3-1.121 7.624 0 .324.249.573.573.573.299 0 .523-.224.548-.523.149-2.367.623-5.606 1.071-7.4l.025-.125c0-.249-.174-.473-.424-.548zm3.438 4.759c-.947 0-1.719.747-1.719 1.794 0 1.246 1.296 2.068 2.716 2.068 1.894 0 2.99-1.146 2.99-2.691 0-1.271-.822-1.993-2.043-2.716-.997-.598-1.221-.897-1.221-1.37 0-.648.448-1.146 1.246-1.146.648 0 .997.548 1.071.797.05.199.299.324.448.324.324 0 .573-.249.573-.573 0-.424-.573-1.495-2.068-1.495-1.545 0-2.367 1.071-2.367 2.093 0 1.246 1.022 1.918 1.819 2.342 1.121.598 1.42 1.296 1.42 1.894 0 1.121-.947 1.644-1.844 1.644-.897 0-1.62-.598-1.62-1.196 0-.349.125-.723.598-.723.174 0 .249.05.399.075.149.025.498-.05.498-.473 0-.498-.448-.648-.897-.648zm10.165-5.157c-1.595 0-2.442 1.246-2.442 2.442 0 1.146.747 2.093 2.193 2.093.623 0 .673-.399.673-.548 0-.299-.249-.548-.573-.548-.424 0-1.171 0-1.171-.997 0-.598.324-1.395 1.271-1.395 1.196 0 1.595 1.345 1.595 2.342 0 2.118-1.146 4.485-2.94 4.485-1.271 0-1.794-1.52-1.794-2.815 0-.523.075-1.221.224-1.595l.05-.249c0-.274-.224-.548-.523-.548-.224 0-.448.174-.523.399-.249.673-.349 1.321-.349 2.018 0 2.317 1.146 3.837 2.865 3.837 2.541 0 4.111-2.865 4.111-5.531 0-1.993-1.022-3.388-2.666-3.388zm5.382 7.574c.573-3.189 1.071-6.229 3.663-6.378.299-.025.523-.199.523-.498 0-.324-.274-.548-.598-.548-1.246 0-2.591.747-3.139 2.392.05-1.246-.648-2.093-1.121-2.093-.274 0-.523.249-.523.548 0 .149.025.299.149.399.324.324.548.747.548 1.844 0 .822-.698 4.908-.698 5.083 0 .299.199.548.498.548.274 0 .498-.174.548-.473l.149-.822z" fill="#fff" sketch:type="MSShapeGroup"/></g></svg>